<svg version="1.1" preserveAspectRatio="none" xmlns="http://www.w3.org/2000/svg" width="500" height="500" viewBox="0 0 500 500"><rect width="100%" height="100%" fill="#FFFFFF" fill-opacity="1"/><svg viewBox="-79.5731 131.4496 572.0649 193.3838" width="333" height="112.56905536417285" x="83.5px" y="193.7155px" xmlns="http://www.w3.org/2000/svg" xmlns:xlink="http://www.w3.org/1999/xlink" preserveAspectRatio="none"><defs></defs><style>.companyName {fill:#1C1C1C;fill-opacity:1;}.icon1 {fill:#1C1C1C;fill-opacity:1;}.icon2 {fill:#BAAE57;fill-opacity:1;}.icon3 {fill:#E192BB;fill-opacity:1;}.icon3-str {stroke:#E192BB;stroke-opacity:1;}.text {fill:#1C1C1C;fill-opacity:1;}</style><g opacity="1" transform="rotate(0 -79.5731 304.8334)">
<svg width="572.0649" height="20" x="-79.5731" y="304.8334" version="1.1" preserveAspectRatio="none" viewBox="2.72 -29.72 1090.2 38.120000000000005">
  <g transform="matrix(1 0 0 1 0 0)" class="text"><path id="id-6izo4zJp49" d="M25.60-6.76Q24.36-3.40 21.52-1.50Q18.68 0.40 14.96 0.40L14.96 0.40Q11.24 0.40 8.48-1.26Q5.72-2.92 4.22-5.98Q2.72-9.04 2.72-13.20L2.72-13.20Q2.72-17.32 4.22-20.40Q5.72-23.48 8.48-25.14Q11.24-26.80 14.88-26.80L14.88-26.80Q18.68-26.80 21.26-25.24Q23.84-23.68 25.12-20.64L25.12-20.64L21.96-19.16Q21.08-21.48 19.40-22.64Q17.72-23.80 15.12-23.80L15.12-23.80Q12.40-23.80 10.36-22.54Q8.32-21.28 7.20-18.88Q6.08-16.48 6.08-13.20L6.08-13.20Q6.08-8.24 8.46-5.42Q10.84-2.60 14.96-2.60L14.96-2.60Q17.64-2.60 19.60-3.96Q21.56-5.32 22.40-7.96L22.40-7.96L25.60-6.76Z M40.80-20.40Q45.32-20.40 47.90-17.64Q50.48-14.88 50.48-10L50.48-10Q50.48-5.12 47.90-2.36Q45.32 0.40 40.80 0.40L40.80 0.40Q36.28 0.40 33.70-2.36Q31.12-5.12 31.12-10L31.12-10Q31.12-14.88 33.70-17.64Q36.28-20.40 40.80-20.40L40.80-20.40ZM40.80-17.64Q37.76-17.64 36.04-15.60Q34.32-13.56 34.32-10L34.32-10Q34.32-6.44 36.04-4.40Q37.76-2.36 40.80-2.36L40.80-2.36Q43.84-2.36 45.56-4.40Q47.28-6.44 47.28-10L47.28-10Q47.28-13.56 45.56-15.60Q43.84-17.64 40.80-17.64L40.80-17.64Z M67.60-20.40Q71-20.40 73.20-18.44Q75.40-16.48 75.40-12.80L75.40-12.80L75.40 0L72.20 0L72.20-11.68Q72.20-14.80 70.86-16.20Q69.52-17.60 67.28-17.60L67.28-17.60Q65.68-17.60 64.28-16.90Q62.88-16.20 61.98-14.62Q61.08-13.04 61.08-10.64L61.08-10.64L61.08 0L57.88 0L57.88-20L60.68-20L60.88-16.88Q61.88-18.68 63.64-19.54Q65.40-20.40 67.60-20.40L67.60-20.40Z M101-11.04Q101-9.92 100.84-8.80L100.84-8.80L85.76-8.80Q86.04-5.76 87.78-4.08Q89.52-2.40 92.28-2.40L92.28-2.40Q94.48-2.40 95.94-3.16Q97.40-3.92 97.92-5.36L97.92-5.36L100.60-3.96Q99.40-1.84 97.40-0.72Q95.40 0.40 92.28 0.40L92.28 0.40Q87.76 0.40 85.18-2.36Q82.60-5.12 82.60-10L82.60-10Q82.60-14.88 85.06-17.64Q87.52-20.40 92.04-20.40L92.04-20.40Q94.84-20.40 96.88-19.16Q98.92-17.92 99.96-15.80Q101-13.68 101-11.04L101-11.04ZM92.04-17.60Q89.40-17.60 87.78-16.04Q86.16-14.48 85.80-11.64L85.80-11.64L97.92-11.64Q97.60-14.44 96.08-16.02Q94.56-17.60 92.04-17.60L92.04-17.60Z M116.72-20.40Q119.72-20.40 121.78-19.02Q123.84-17.64 125.00-15.08L125.00-15.08L121.96-13.64Q120.68-17.60 116.64-17.60L116.64-17.60Q113.64-17.60 111.94-15.58Q110.24-13.56 110.24-10L110.24-10Q110.24-6.44 111.94-4.42Q113.64-2.40 116.64-2.40L116.64-2.40Q118.96-2.40 120.38-3.46Q121.80-4.52 122.24-6.52L122.24-6.52L125.20-5.48Q124.16-2.68 122.00-1.14Q119.84 0.40 116.72 0.40L116.72 0.40Q112.20 0.40 109.62-2.36Q107.04-5.12 107.04-10L107.04-10Q107.04-14.88 109.62-17.64Q112.20-20.40 116.72-20.40L116.72-20.40Z M143.16-4.08L144.28-1.40Q142.28 0.40 139.12 0.40L139.12 0.40Q136.68 0.40 135.14-0.92Q133.60-2.24 133.56-4.96L133.56-4.96L133.56-17.24L129.56-17.24L129.56-20L133.56-20L133.56-24.80L136.76-25.68L136.76-20L144.16-20L144.16-17.24L136.76-17.24L136.76-5.52Q136.76-4.08 137.58-3.34Q138.40-2.60 139.76-2.60L139.76-2.60Q141.68-2.60 143.16-4.08L143.16-4.08Z M166.40-2.32Q167.20-2.32 168-2.52L168-2.52L167.80 0Q166.68 0.40 165.40 0.40L165.40 0.40Q163.84 0.40 162.94-0.28Q162.04-0.96 161.80-2.56L161.80-2.56Q160.88-1.16 159.10-0.38Q157.32 0.40 155.36 0.40L155.36 0.40Q152.40 0.40 150.48-0.98Q148.56-2.36 148.56-4.96L148.56-4.96Q148.56-7.24 150.56-8.90Q152.56-10.56 156.36-11.20L156.36-11.20L161.68-12.08L161.68-13.20Q161.68-15.20 160.44-16.40Q159.20-17.60 157-17.60L157-17.60Q155-17.60 153.54-16.64Q152.08-15.68 151.28-13.80L151.28-13.80L148.92-15.52Q149.72-17.76 151.90-19.08Q154.08-20.40 157-20.40L157-20.40Q160.56-20.40 162.72-18.68Q164.88-16.96 164.88-13.60L164.88-13.60L164.88-3.76Q164.88-3.04 165.24-2.68Q165.60-2.32 166.40-2.32L166.40-2.32ZM155.52-2.40Q158.04-2.40 159.86-3.60Q161.68-4.80 161.68-6.72L161.68-6.72L161.68-9.48L157.20-8.64Q154.52-8.16 153.20-7.26Q151.88-6.36 151.88-4.96L151.88-4.96Q151.88-3.72 152.84-3.06Q153.80-2.40 155.52-2.40L155.52-2.40Z M183.56-20.40Q186.96-20.40 189.16-18.44Q191.36-16.48 191.36-12.80L191.36-12.80L191.36 0L188.16 0L188.16-11.68Q188.16-14.80 186.82-16.20Q185.48-17.60 183.24-17.60L183.24-17.60Q181.64-17.60 180.24-16.90Q178.84-16.20 177.94-14.62Q177.04-13.04 177.04-10.64L177.04-10.64L177.04 0L173.84 0L173.84-20L176.64-20L176.84-16.88Q177.84-18.68 179.60-19.54Q181.36-20.40 183.56-20.40L183.56-20.40Z M214.36-29.20L217.56-29.20L217.56 0L214.76 0L214.56-3.48Q213.68-1.72 211.86-0.66Q210.04 0.40 207.72 0.40L207.72 0.40Q203.52 0.40 201.06-2.38Q198.60-5.16 198.60-10L198.60-10Q198.60-14.84 201.06-17.62Q203.52-20.40 207.72-20.40L207.72-20.40Q209.92-20.40 211.66-19.44Q213.40-18.48 214.36-16.88L214.36-16.88L214.36-29.20ZM208.08-2.40Q210.96-2.40 212.66-4.40Q214.36-6.40 214.36-9.76L214.36-9.76L214.36-10.24Q214.36-13.60 212.66-15.60Q210.96-17.60 208.08-17.60L208.08-17.60Q205.16-17.60 203.48-15.54Q201.80-13.48 201.80-10L201.80-10Q201.80-6.52 203.48-4.46Q205.16-2.40 208.08-2.40L208.08-2.40Z M234.64-20.40Q239.16-20.40 241.74-17.64Q244.32-14.88 244.32-10L244.32-10Q244.32-5.12 241.74-2.36Q239.16 0.40 234.64 0.40L234.64 0.40Q230.12 0.40 227.54-2.36Q224.96-5.12 224.96-10L224.96-10Q224.96-14.88 227.54-17.64Q230.12-20.40 234.64-20.40L234.64-20.40ZM234.64-17.64Q231.60-17.64 229.88-15.60Q228.16-13.56 228.16-10L228.16-10Q228.16-6.44 229.88-4.40Q231.60-2.36 234.64-2.36L234.64-2.36Q237.68-2.36 239.40-4.40Q241.12-6.44 241.12-10L241.12-10Q241.12-13.56 239.40-15.60Q237.68-17.64 234.64-17.64L234.64-17.64Z M284.64-26.40L284.64-23.40L275.44-23.40L275.44 0L272.24 0L272.24-23.40L263.04-23.40L263.04-26.40L284.64-26.40Z M303.20-2.32Q304.00-2.32 304.80-2.52L304.80-2.52L304.60 0Q303.48 0.40 302.20 0.40L302.20 0.40Q300.64 0.40 299.74-0.28Q298.84-0.96 298.60-2.56L298.60-2.56Q297.68-1.16 295.90-0.38Q294.12 0.40 292.16 0.40L292.16 0.40Q289.20 0.40 287.28-0.98Q285.36-2.36 285.36-4.96L285.36-4.96Q285.36-7.24 287.36-8.90Q289.36-10.56 293.16-11.20L293.16-11.20L298.48-12.08L298.48-13.20Q298.48-15.20 297.24-16.40Q296.00-17.60 293.80-17.60L293.80-17.60Q291.80-17.60 290.34-16.64Q288.88-15.68 288.08-13.80L288.08-13.80L285.72-15.52Q286.52-17.76 288.70-19.08Q290.88-20.40 293.80-20.40L293.80-20.40Q297.36-20.40 299.52-18.68Q301.68-16.96 301.68-13.60L301.68-13.60L301.68-3.76Q301.68-3.04 302.04-2.68Q302.40-2.32 303.20-2.32L303.20-2.32ZM292.32-2.40Q294.84-2.40 296.66-3.60Q298.48-4.80 298.48-6.72L298.48-6.72L298.48-9.48L294.00-8.64Q291.32-8.16 290.00-7.26Q288.68-6.36 288.68-4.96L288.68-4.96Q288.68-3.72 289.64-3.06Q290.60-2.40 292.32-2.40L292.32-2.40Z M313.68-29.20L313.68-5.36Q313.68-3.84 314.14-3.26Q314.60-2.68 315.84-2.68L315.84-2.68Q316.68-2.68 317.30-2.80Q317.92-2.92 318.76-3.24L318.76-3.24L318.24-0.16Q316.92 0.40 315.28 0.40L315.28 0.40Q312.84 0.40 311.66-0.92Q310.48-2.24 310.48-4.96L310.48-4.96L310.48-29.20L313.68-29.20Z M341.24-11.04Q341.24-9.92 341.08-8.80L341.08-8.80L326.00-8.80Q326.28-5.76 328.02-4.08Q329.76-2.40 332.52-2.40L332.52-2.40Q334.72-2.40 336.18-3.16Q337.64-3.92 338.16-5.36L338.16-5.36L340.84-3.96Q339.64-1.84 337.64-0.72Q335.64 0.40 332.52 0.40L332.52 0.40Q328.00 0.40 325.42-2.36Q322.84-5.12 322.84-10L322.84-10Q322.84-14.88 325.30-17.64Q327.76-20.40 332.28-20.40L332.28-20.40Q335.08-20.40 337.12-19.16Q339.16-17.92 340.20-15.80Q341.24-13.68 341.24-11.04L341.24-11.04ZM332.28-17.60Q329.64-17.60 328.02-16.04Q326.40-14.48 326.04-11.64L326.04-11.64L338.16-11.64Q337.84-14.44 336.32-16.02Q334.80-17.60 332.28-17.60L332.28-17.60Z M358.24-20.40Q361.64-20.40 363.84-18.44Q366.04-16.48 366.04-12.80L366.04-12.80L366.04 0L362.84 0L362.84-11.68Q362.84-14.80 361.50-16.20Q360.16-17.60 357.92-17.60L357.92-17.60Q356.32-17.60 354.92-16.90Q353.52-16.20 352.62-14.62Q351.72-13.04 351.72-10.64L351.72-10.64L351.72 0L348.52 0L348.52-20L351.32-20L351.52-16.88Q352.52-18.68 354.28-19.54Q356.04-20.40 358.24-20.40L358.24-20.40Z M385.32-4.08L386.44-1.40Q384.44 0.40 381.28 0.40L381.28 0.40Q378.84 0.40 377.30-0.92Q375.76-2.24 375.72-4.96L375.72-4.96L375.72-17.24L371.72-17.24L371.72-20L375.72-20L375.72-24.80L378.92-25.68L378.92-20L386.32-20L386.32-17.24L378.92-17.24L378.92-5.52Q378.92-4.08 379.74-3.34Q380.56-2.60 381.92-2.60L381.92-2.60Q383.84-2.60 385.32-4.08L385.32-4.08Z M400.60-20.40Q405.12-20.40 407.70-17.64Q410.28-14.88 410.28-10L410.28-10Q410.28-5.12 407.70-2.36Q405.12 0.40 400.60 0.40L400.60 0.40Q396.08 0.40 393.50-2.36Q390.92-5.12 390.92-10L390.92-10Q390.92-14.88 393.50-17.64Q396.08-20.40 400.60-20.40L400.60-20.40ZM400.60-17.64Q397.56-17.64 395.84-15.60Q394.12-13.56 394.12-10L394.12-10Q394.12-6.44 395.84-4.40Q397.56-2.36 400.60-2.36L400.60-2.36Q403.64-2.36 405.36-4.40Q407.08-6.44 407.08-10L407.08-10Q407.08-13.56 405.36-15.60Q403.64-17.64 400.60-17.64L400.60-17.64Z M424.48 0.40Q421.60 0.40 419.28-0.74Q416.96-1.88 415.88-4.12L415.88-4.12L418.48-5.92Q419.16-4.16 420.84-3.28Q422.52-2.40 424.80-2.40L424.80-2.40Q427.16-2.40 428.40-3.24Q429.64-4.08 429.64-5.36L429.64-5.36Q429.64-6.52 428.48-7.22Q427.32-7.92 424.40-8.44L424.40-8.44Q421.52-8.96 419.84-9.70Q418.16-10.44 417.40-11.58Q416.64-12.72 416.64-14.40L416.64-14.40Q416.64-16.04 417.60-17.40Q418.56-18.76 420.36-19.58Q422.16-20.40 424.52-20.40L424.52-20.40Q427.72-20.40 429.66-19.22Q431.60-18.04 432.44-15.60L432.44-15.60L429.72-14Q429.08-15.92 427.78-16.76Q426.48-17.60 424.52-17.60L424.52-17.60Q422.56-17.60 421.20-16.72Q419.84-15.84 419.84-14.68L419.84-14.68Q419.84-13.36 421.02-12.64Q422.20-11.92 425.24-11.40L425.24-11.40Q429.40-10.72 431.12-9.36Q432.84-8 432.84-5.52L432.84-5.52Q432.84-3.80 431.82-2.46Q430.80-1.12 428.90-0.36Q427.00 0.40 424.48 0.40L424.48 0.40Z M471.96-11.04Q471.96-9.92 471.80-8.80L471.80-8.80L456.72-8.80Q457.00-5.76 458.74-4.08Q460.48-2.40 463.24-2.40L463.24-2.40Q465.44-2.40 466.90-3.16Q468.36-3.92 468.88-5.36L468.88-5.36L471.56-3.96Q470.36-1.84 468.36-0.72Q466.36 0.40 463.24 0.40L463.24 0.40Q458.72 0.40 456.14-2.36Q453.56-5.12 453.56-10L453.56-10Q453.56-14.88 456.02-17.64Q458.48-20.40 463.00-20.40L463.00-20.40Q465.80-20.40 467.84-19.16Q469.88-17.92 470.92-15.80Q471.96-13.68 471.96-11.04L471.96-11.04ZM463.00-17.60Q460.36-17.60 458.74-16.04Q457.12-14.48 456.76-11.64L456.76-11.64L468.88-11.64Q468.56-14.44 467.04-16.02Q465.52-17.60 463.00-17.60L463.00-17.60Z M505.32-26.80Q509.04-26.80 511.80-25.14Q514.56-23.48 516.06-20.42Q517.56-17.36 517.56-13.20L517.56-13.20Q517.56-9.04 516.06-5.98Q514.56-2.92 511.80-1.26Q509.04 0.40 505.32 0.40L505.32 0.40Q501.60 0.40 498.84-1.26Q496.08-2.92 494.58-5.98Q493.08-9.04 493.08-13.20L493.08-13.20Q493.08-17.36 494.58-20.42Q496.08-23.48 498.84-25.14Q501.60-26.80 505.32-26.80L505.32-26.80ZM505.32-23.80Q501.20-23.80 498.82-20.98Q496.44-18.16 496.44-13.20L496.44-13.20Q496.44-8.24 498.82-5.42Q501.20-2.60 505.32-2.60L505.32-2.60Q509.44-2.60 511.82-5.42Q514.20-8.24 514.20-13.20L514.20-13.20Q514.20-18.16 511.82-20.98Q509.44-23.80 505.32-23.80L505.32-23.80Z M534.84-20.40Q539.04-20.40 541.50-17.62Q543.96-14.84 543.96-10L543.96-10Q543.96-5.16 541.50-2.38Q539.04 0.40 534.84 0.40L534.84 0.40Q532.64 0.40 530.90-0.56Q529.16-1.52 528.20-3.12L528.20-3.12L528.20 8.40L525.00 8.40L525.00-20L527.80-20L528.00-16.52Q528.88-18.28 530.70-19.34Q532.52-20.40 534.84-20.40L534.84-20.40ZM534.48-2.40Q537.40-2.40 539.08-4.46Q540.76-6.52 540.76-10L540.76-10Q540.76-13.48 539.08-15.54Q537.40-17.60 534.48-17.60L534.48-17.60Q531.60-17.60 529.90-15.60Q528.20-13.60 528.20-10.24L528.20-10.24L528.20-9.76Q528.20-6.40 529.90-4.40Q531.60-2.40 534.48-2.40L534.48-2.40Z M559.84-20.40Q564.36-20.40 566.94-17.64Q569.52-14.88 569.52-10L569.52-10Q569.52-5.12 566.94-2.36Q564.36 0.40 559.84 0.40L559.84 0.40Q555.32 0.40 552.74-2.36Q550.16-5.12 550.16-10L550.16-10Q550.16-14.88 552.74-17.64Q555.32-20.40 559.84-20.40L559.84-20.40ZM559.84-17.64Q556.80-17.64 555.08-15.60Q553.36-13.56 553.36-10L553.36-10Q553.36-6.44 555.08-4.40Q556.80-2.36 559.84-2.36L559.84-2.36Q562.88-2.36 564.60-4.40Q566.32-6.44 566.32-10L566.32-10Q566.32-13.56 564.60-15.60Q562.88-17.64 559.84-17.64L559.84-17.64Z M586.36-20.40Q587.80-20.40 588.56-20L588.56-20L587.92-16.88Q586.96-17.40 585.40-17.40L585.40-17.40Q584.12-17.40 582.90-16.66Q581.68-15.92 580.90-14.42Q580.12-12.92 580.12-10.80L580.12-10.80L580.12 0L576.92 0L576.92-20L579.52-20L579.96-16.72Q581.64-20.40 586.36-20.40L586.36-20.40Z M604.36-4.08L605.48-1.40Q603.48 0.40 600.32 0.40L600.32 0.40Q597.88 0.40 596.34-0.92Q594.80-2.24 594.76-4.96L594.76-4.96L594.76-17.24L590.76-17.24L590.76-20L594.76-20L594.76-24.80L597.96-25.68L597.96-20L605.36-20L605.36-17.24L597.96-17.24L597.96-5.52Q597.96-4.08 598.78-3.34Q599.60-2.60 600.96-2.60L600.96-2.60Q602.88-2.60 604.36-4.08L604.36-4.08Z M625.32-20L628.52-20L628.52 0L625.72 0L625.52-3.04Q623.52 0.40 618.36 0.40L618.36 0.40Q615.12 0.40 613.06-1.40Q611-3.20 611-6.92L611-6.92L611-20L614.20-20L614.20-7.76Q614.20-4.84 615.40-3.62Q616.60-2.40 618.92-2.40L618.92-2.40Q621.68-2.40 623.50-4.08Q625.32-5.76 625.32-9.12L625.32-9.12L625.32-20Z M646.88-20.40Q650.28-20.40 652.48-18.44Q654.68-16.48 654.68-12.80L654.68-12.80L654.68 0L651.48 0L651.48-11.68Q651.48-14.80 650.14-16.20Q648.80-17.60 646.56-17.60L646.56-17.60Q644.96-17.60 643.56-16.90Q642.16-16.20 641.26-14.62Q640.36-13.04 640.36-10.64L640.36-10.64L640.36 0L637.16 0L637.16-20L639.96-20L640.16-16.88Q641.16-18.68 642.92-19.54Q644.68-20.40 646.88-20.40L646.88-20.40Z M664.72-23.84Q663.64-23.84 662.98-24.50Q662.32-25.16 662.32-26.24L662.32-26.24Q662.32-27.32 662.98-27.98Q663.64-28.64 664.72-28.64L664.72-28.64Q665.80-28.64 666.46-27.98Q667.12-27.32 667.12-26.24L667.12-26.24Q667.12-25.16 666.46-24.50Q665.80-23.84 664.72-23.84L664.72-23.84ZM666.32-20L666.32 0L663.12 0L663.12-20L666.32-20Z M689.52-29.20L692.72-29.20L692.72 0L689.92 0L689.72-3.48Q688.84-1.72 687.02-0.66Q685.20 0.40 682.88 0.40L682.88 0.40Q678.68 0.40 676.22-2.38Q673.76-5.16 673.76-10L673.76-10Q673.76-14.84 676.22-17.62Q678.68-20.40 682.88-20.40L682.88-20.40Q685.08-20.40 686.82-19.44Q688.56-18.48 689.52-16.88L689.52-16.88L689.52-29.20ZM683.24-2.40Q686.12-2.40 687.82-4.40Q689.52-6.40 689.52-9.76L689.52-9.76L689.52-10.24Q689.52-13.60 687.82-15.60Q686.12-17.60 683.24-17.60L683.24-17.60Q680.32-17.60 678.64-15.54Q676.96-13.48 676.96-10L676.96-10Q676.96-6.52 678.64-4.46Q680.32-2.40 683.24-2.40L683.24-2.40Z M717.76-2.32Q718.56-2.32 719.36-2.52L719.36-2.52L719.16 0Q718.04 0.40 716.76 0.40L716.76 0.40Q715.20 0.40 714.30-0.28Q713.40-0.96 713.16-2.56L713.16-2.56Q712.24-1.16 710.46-0.38Q708.68 0.40 706.72 0.40L706.72 0.40Q703.76 0.40 701.84-0.98Q699.92-2.36 699.92-4.96L699.92-4.96Q699.92-7.24 701.92-8.90Q703.92-10.56 707.72-11.20L707.72-11.20L713.04-12.08L713.04-13.20Q713.04-15.20 711.80-16.40Q710.56-17.60 708.36-17.60L708.36-17.60Q706.36-17.60 704.90-16.64Q703.44-15.68 702.64-13.80L702.64-13.80L700.28-15.52Q701.08-17.76 703.26-19.08Q705.44-20.40 708.36-20.40L708.36-20.40Q711.92-20.40 714.08-18.68Q716.24-16.96 716.24-13.60L716.24-13.60L716.24-3.76Q716.24-3.04 716.60-2.68Q716.96-2.32 717.76-2.32L717.76-2.32ZM706.88-2.40Q709.40-2.40 711.22-3.60Q713.04-4.80 713.04-6.72L713.04-6.72L713.04-9.48L708.56-8.64Q705.88-8.16 704.56-7.26Q703.24-6.36 703.24-4.96L703.24-4.96Q703.24-3.72 704.20-3.06Q705.16-2.40 706.88-2.40L706.88-2.40Z M739.76-29.20L742.96-29.20L742.96 0L740.16 0L739.96-3.48Q739.08-1.72 737.26-0.66Q735.44 0.40 733.12 0.40L733.12 0.40Q728.92 0.40 726.46-2.38Q724.00-5.16 724.00-10L724.00-10Q724.00-14.84 726.46-17.62Q728.92-20.40 733.12-20.40L733.12-20.40Q735.32-20.40 737.06-19.44Q738.80-18.48 739.76-16.88L739.76-16.88L739.76-29.20ZM733.48-2.40Q736.36-2.40 738.06-4.40Q739.76-6.40 739.76-9.76L739.76-9.76L739.76-10.24Q739.76-13.60 738.06-15.60Q736.36-17.60 733.48-17.60L733.48-17.60Q730.56-17.60 728.88-15.54Q727.20-13.48 727.20-10L727.20-10Q727.20-6.52 728.88-4.46Q730.56-2.40 733.48-2.40L733.48-2.40Z M768.76-11.04Q768.76-9.92 768.60-8.80L768.60-8.80L753.52-8.80Q753.80-5.76 755.54-4.08Q757.28-2.40 760.04-2.40L760.04-2.40Q762.24-2.40 763.70-3.16Q765.16-3.92 765.68-5.36L765.68-5.36L768.36-3.96Q767.16-1.84 765.16-0.72Q763.16 0.40 760.04 0.40L760.04 0.40Q755.52 0.40 752.94-2.36Q750.36-5.12 750.36-10L750.36-10Q750.36-14.88 752.82-17.64Q755.28-20.40 759.80-20.40L759.80-20.40Q762.60-20.40 764.64-19.16Q766.68-17.92 767.72-15.80Q768.76-13.68 768.76-11.04L768.76-11.04ZM759.80-17.60Q757.16-17.60 755.54-16.04Q753.92-14.48 753.56-11.64L753.56-11.64L765.68-11.64Q765.36-14.44 763.84-16.02Q762.32-17.60 759.80-17.60L759.80-17.60Z M782.84 0.40Q779.96 0.40 777.64-0.74Q775.32-1.88 774.24-4.12L774.24-4.12L776.84-5.92Q777.52-4.16 779.20-3.28Q780.88-2.40 783.16-2.40L783.16-2.40Q785.52-2.40 786.76-3.24Q788.00-4.08 788.00-5.36L788.00-5.36Q788.00-6.52 786.84-7.22Q785.68-7.92 782.76-8.44L782.76-8.44Q779.88-8.96 778.20-9.70Q776.52-10.44 775.76-11.58Q775.00-12.72 775.00-14.40L775.00-14.40Q775.00-16.04 775.96-17.40Q776.92-18.76 778.72-19.58Q780.52-20.40 782.88-20.40L782.88-20.40Q786.08-20.40 788.02-19.22Q789.96-18.04 790.80-15.60L790.80-15.60L788.08-14Q787.44-15.92 786.14-16.76Q784.84-17.60 782.88-17.60L782.88-17.60Q780.92-17.60 779.56-16.72Q778.20-15.84 778.20-14.68L778.20-14.68Q778.20-13.36 779.38-12.64Q780.56-11.92 783.60-11.40L783.60-11.40Q787.76-10.72 789.48-9.36Q791.20-8 791.20-5.52L791.20-5.52Q791.20-3.80 790.18-2.46Q789.16-1.12 787.26-0.36Q785.36 0.40 782.84 0.40L782.84 0.40Z M827.72-29.20L830.92-29.20L830.92 0L828.12 0L827.92-3.48Q827.04-1.72 825.22-0.66Q823.40 0.40 821.08 0.40L821.08 0.40Q816.88 0.40 814.42-2.38Q811.96-5.16 811.96-10L811.96-10Q811.96-14.84 814.42-17.62Q816.88-20.40 821.08-20.40L821.08-20.40Q823.28-20.40 825.02-19.44Q826.76-18.48 827.72-16.88L827.72-16.88L827.72-29.20ZM821.44-2.40Q824.32-2.40 826.02-4.40Q827.72-6.40 827.72-9.76L827.72-9.76L827.72-10.24Q827.72-13.60 826.02-15.60Q824.32-17.60 821.44-17.60L821.44-17.60Q818.52-17.60 816.84-15.54Q815.16-13.48 815.16-10L815.16-10Q815.16-6.52 816.84-4.46Q818.52-2.40 821.44-2.40L821.44-2.40Z M856.72-11.04Q856.72-9.92 856.56-8.80L856.56-8.80L841.48-8.80Q841.76-5.76 843.50-4.08Q845.24-2.40 848.00-2.40L848.00-2.40Q850.20-2.40 851.66-3.16Q853.12-3.92 853.64-5.36L853.64-5.36L856.32-3.96Q855.12-1.84 853.12-0.72Q851.12 0.40 848.00 0.40L848.00 0.40Q843.48 0.40 840.90-2.36Q838.32-5.12 838.32-10L838.32-10Q838.32-14.88 840.78-17.64Q843.24-20.40 847.76-20.40L847.76-20.40Q850.56-20.40 852.60-19.16Q854.64-17.92 855.68-15.80Q856.72-13.68 856.72-11.04L856.72-11.04ZM847.76-17.60Q845.12-17.60 843.50-16.04Q841.88-14.48 841.52-11.64L841.52-11.64L853.64-11.64Q853.32-14.44 851.80-16.02Q850.28-17.60 847.76-17.60L847.76-17.60Z M882.64-3L898.56-3L898.56 0L879.44 0L879.44-26.40L897.96-26.40L897.96-23.40L882.64-23.40L882.64-14.88L894.56-14.88L894.56-11.88L882.64-11.88L882.64-3Z M921.84 0L917.92 0L912.40-7.72L906.72 0L903.00 0L910.68-10.08L903.48-20L907.48-20L912.76-12.60L917.96-20L921.72-20L914.48-10.20L921.84 0Z M935.72-20.40Q938.72-20.40 940.78-19.02Q942.84-17.64 944.00-15.08L944.00-15.08L940.96-13.64Q939.68-17.60 935.64-17.60L935.64-17.60Q932.64-17.60 930.94-15.58Q929.24-13.56 929.24-10L929.24-10Q929.24-6.44 930.94-4.42Q932.64-2.40 935.64-2.40L935.64-2.40Q937.96-2.40 939.38-3.46Q940.80-4.52 941.24-6.52L941.24-6.52L944.20-5.48Q943.16-2.68 941.00-1.14Q938.84 0.40 935.72 0.40L935.72 0.40Q931.20 0.40 928.62-2.36Q926.04-5.12 926.04-10L926.04-10Q926.04-14.88 928.62-17.64Q931.20-20.40 935.72-20.40L935.72-20.40Z M968.20-11.04Q968.20-9.92 968.04-8.80L968.04-8.80L952.96-8.80Q953.24-5.76 954.98-4.08Q956.72-2.40 959.48-2.40L959.48-2.40Q961.68-2.40 963.14-3.16Q964.60-3.92 965.12-5.36L965.12-5.36L967.80-3.96Q966.60-1.84 964.60-0.72Q962.60 0.40 959.48 0.40L959.48 0.40Q954.96 0.40 952.38-2.36Q949.80-5.12 949.80-10L949.80-10Q949.80-14.88 952.26-17.64Q954.72-20.40 959.24-20.40L959.24-20.40Q962.04-20.40 964.08-19.16Q966.12-17.92 967.16-15.80Q968.20-13.68 968.20-11.04L968.20-11.04ZM959.24-17.60Q956.60-17.60 954.98-16.04Q953.36-14.48 953.00-11.64L953.00-11.64L965.12-11.64Q964.80-14.44 963.28-16.02Q961.76-17.60 959.24-17.60L959.24-17.60Z M978.52-29.20L978.52-5.36Q978.52-3.84 978.98-3.26Q979.44-2.68 980.68-2.68L980.68-2.68Q981.52-2.68 982.14-2.80Q982.76-2.92 983.60-3.24L983.60-3.24L983.08-0.16Q981.76 0.40 980.12 0.40L980.12 0.40Q977.68 0.40 976.50-0.92Q975.32-2.24 975.32-4.96L975.32-4.96L975.32-29.20L978.52-29.20Z M1006.08-11.04Q1006.08-9.92 1005.92-8.80L1005.92-8.80L990.84-8.80Q991.12-5.76 992.86-4.08Q994.60-2.40 997.36-2.40L997.36-2.40Q999.56-2.40 1001.02-3.16Q1002.48-3.92 1003.00-5.36L1003.00-5.36L1005.68-3.96Q1004.48-1.84 1002.48-0.72Q1000.48 0.40 997.36 0.40L997.36 0.40Q992.84 0.40 990.26-2.36Q987.68-5.12 987.68-10L987.68-10Q987.68-14.88 990.14-17.64Q992.60-20.40 997.12-20.40L997.12-20.40Q999.92-20.40 1001.96-19.16Q1004.00-17.92 1005.04-15.80Q1006.08-13.68 1006.08-11.04L1006.08-11.04ZM997.12-17.60Q994.48-17.60 992.86-16.04Q991.24-14.48 990.88-11.64L990.88-11.64L1003.00-11.64Q1002.68-14.44 1001.16-16.02Q999.64-17.60 997.12-17.60L997.12-17.60ZM1003.32-23.04L1000.40-23.04L997.00-27.48L993.60-23.04L990.68-23.04L995.16-29.72L998.84-29.72L1003.32-23.04Z M1023.08-20.40Q1026.48-20.40 1028.68-18.44Q1030.88-16.48 1030.88-12.80L1030.88-12.80L1030.88 0L1027.68 0L1027.68-11.68Q1027.68-14.80 1026.34-16.20Q1025.00-17.60 1022.76-17.60L1022.76-17.60Q1021.16-17.60 1019.76-16.90Q1018.36-16.20 1017.46-14.62Q1016.56-13.04 1016.56-10.64L1016.56-10.64L1016.56 0L1013.36 0L1013.36-20L1016.16-20L1016.36-16.88Q1017.36-18.68 1019.12-19.54Q1020.88-20.40 1023.08-20.40L1023.08-20.40Z M1047.76-20.40Q1050.76-20.40 1052.82-19.02Q1054.88-17.64 1056.04-15.08L1056.04-15.08L1053.00-13.64Q1051.72-17.60 1047.68-17.60L1047.68-17.60Q1044.68-17.60 1042.98-15.58Q1041.28-13.56 1041.28-10L1041.28-10Q1041.28-6.44 1042.98-4.42Q1044.68-2.40 1047.68-2.40L1047.68-2.40Q1050.00-2.40 1051.42-3.46Q1052.84-4.52 1053.28-6.52L1053.28-6.52L1056.24-5.48Q1055.20-2.68 1053.04-1.14Q1050.88 0.40 1047.76 0.40L1047.76 0.40Q1043.24 0.40 1040.66-2.36Q1038.08-5.12 1038.08-10L1038.08-10Q1038.08-14.88 1040.66-17.64Q1043.24-20.40 1047.76-20.40L1047.76-20.40Z M1064.68-23.84Q1063.60-23.84 1062.94-24.50Q1062.28-25.16 1062.28-26.24L1062.28-26.24Q1062.28-27.32 1062.94-27.98Q1063.60-28.64 1064.68-28.64L1064.68-28.64Q1065.76-28.64 1066.42-27.98Q1067.08-27.32 1067.08-26.24L1067.08-26.24Q1067.08-25.16 1066.42-24.50Q1065.76-23.84 1064.68-23.84L1064.68-23.84ZM1066.28-20L1066.28 0L1063.08 0L1063.08-20L1066.28-20Z M1091.32-2.32Q1092.12-2.32 1092.92-2.52L1092.92-2.52L1092.72 0Q1091.60 0.40 1090.32 0.40L1090.32 0.40Q1088.76 0.40 1087.86-0.28Q1086.96-0.96 1086.72-2.56L1086.72-2.56Q1085.80-1.16 1084.02-0.38Q1082.24 0.40 1080.28 0.40L1080.28 0.40Q1077.32 0.40 1075.40-0.98Q1073.48-2.36 1073.48-4.96L1073.48-4.96Q1073.48-7.24 1075.48-8.90Q1077.48-10.56 1081.28-11.20L1081.28-11.20L1086.60-12.08L1086.60-13.20Q1086.60-15.20 1085.36-16.40Q1084.12-17.60 1081.92-17.60L1081.92-17.60Q1079.92-17.60 1078.46-16.64Q1077.00-15.68 1076.20-13.80L1076.20-13.80L1073.84-15.52Q1074.64-17.76 1076.82-19.08Q1079.00-20.40 1081.92-20.40L1081.92-20.40Q1085.48-20.40 1087.64-18.68Q1089.80-16.96 1089.80-13.60L1089.80-13.60L1089.80-3.76Q1089.80-3.04 1090.16-2.68Q1090.52-2.32 1091.32-2.32L1091.32-2.32ZM1080.44-2.40Q1082.96-2.40 1084.78-3.60Q1086.60-4.80 1086.60-6.72L1086.60-6.72L1086.60-9.48L1082.12-8.64Q1079.44-8.16 1078.12-7.26Q1076.80-6.36 1076.80-4.96L1076.80-4.96Q1076.80-3.72 1077.76-3.06Q1078.72-2.40 1080.44-2.40L1080.44-2.40Z"/></g>
</svg>
</g><g opacity="1" transform="rotate(0 43.9604 246.8334)">
<svg width="324.9978" height="40" x="43.9604" y="246.8334" version="1.1" preserveAspectRatio="none" viewBox="1.2 -26.8 221.65040000000002 27.28">
  <g transform="matrix(1 0 0 1 0 0)" class="companyName"><path id="id-D6z1nYkh10" d="M25.08-22.40L25.08-21.60L23.08-21.60L23.08-0.80L25.08-0.80L25.08 0L15.08 0L15.08-0.80L17.08-0.80L17.08-11.52L9.20-11.52L9.20-0.80L11.20-0.80L11.20 0L1.20 0L1.20-0.80L3.20-0.80L3.20-21.60L1.20-21.60L1.20-22.40L11.20-22.40L11.20-21.60L9.20-21.60L9.20-12.32L17.08-12.32L17.08-21.60L15.08-21.60L15.08-22.40L25.08-22.40Z M45.56-8L45.56-8L33.48-8Q33.88-0.96 38.96-0.96L38.96-0.96Q40.32-0.96 42.06-1.60Q43.80-2.24 44.60-3.40L44.60-3.40L45.16-3Q44.28-1.52 42.16-0.56Q40.04 0.40 37.94 0.40Q35.84 0.40 34.16-0.02Q32.48-0.44 30.88-1.44Q29.28-2.44 28.38-4.44Q27.48-6.44 27.48-9.28L27.48-9.28Q27.48-14.12 30.16-16.46Q32.84-18.80 36.66-18.80Q40.48-18.80 43.02-16.24Q45.56-13.68 45.56-8ZM33.44-9.24L33.44-8.80L39.96-8.80Q39.96-12.48 39.18-15.24Q38.40-18 36.68-18Q34.96-18 34.20-15.34Q33.44-12.68 33.44-9.24L33.44-9.24Z M67.88-0.80Q67.48-0.40 66.36-0.10Q65.24 0.20 63.76 0.20L63.76 0.20Q60.48 0.20 59.64-1.76L59.64-1.76Q57.64 0.32 53.52 0.32L53.52 0.32Q51.32 0.32 49.90-0.70Q48.48-1.72 48.48-3.72L48.48-3.72Q48.48-6.40 50.56-7.86Q52.64-9.32 57.84-9.92L57.84-9.92L59.44-10.12L59.44-12.08Q59.44-15.56 58.92-16.76Q58.40-17.96 56.86-17.96Q55.32-17.96 54.88-17.54Q54.44-17.12 54.56-16.58Q54.68-16.04 54.96-15.16Q55.24-14.28 55.24-13.76L55.24-13.76Q55.24-12.52 54.38-11.66Q53.52-10.80 52.30-10.80Q51.08-10.80 50.20-11.66Q49.32-12.52 49.32-13.76L49.32-13.76Q49.32-15.80 51.42-17.26Q53.52-18.72 57.70-18.72Q61.88-18.72 63.66-17.08Q65.44-15.44 65.44-11.28L65.44-11.28L65.44-4.08Q65.44-1.96 65.96-1.42Q66.48-0.88 67.88-1.20L67.88-1.20L67.88-0.80ZM54.04-4.52Q54.24-3 55.16-2.18Q56.08-1.36 57.30-1.36Q58.52-1.36 59.44-2.56L59.44-2.56L59.44-9.36L58-9.16Q56.16-8.92 55.02-7.76Q53.88-6.60 54.04-4.52L54.04-4.52Z M77.84 0.48L77.84 0.48Q74.60 0.48 72.24-2.08Q69.88-4.64 69.88-9.32Q69.88-14 72.20-16.64Q74.52-19.28 77.84-19.28L77.84-19.28Q79.48-19.28 80.92-18.60Q82.36-17.92 83-16.56L83-16.56L83-26L81-26L81-26.80L89-26.80L89-0.80L91-0.80L91 0L83 0L83-1.84Q81.92 0.48 77.84 0.48ZM83-8.76L83-8.76L83-15.36Q81.92-17.52 80.18-17.52Q78.44-17.52 77.20-15.52Q75.96-13.52 75.96-9.18Q75.96-4.84 77.24-2.84Q78.52-0.84 80.32-1.12L80.32-1.12Q81.32-1.28 81.84-1.76L81.84-1.76Q83-2.88 83-8.76Z M117.28-22.40L117.28-21.60L115.28-21.60L115.28-0.80L117.28-0.80L117.28 0L107.28 0L107.28-0.80L109.28-0.80L109.28-11.52L101.40-11.52L101.40-0.80L103.40-0.80L103.40 0L93.40 0L93.40-0.80L95.40-0.80L95.40-21.60L93.40-21.60L93.40-22.40L103.40-22.40L103.40-21.60L101.40-21.60L101.40-12.32L109.28-12.32L109.28-21.60L107.28-21.60L107.28-22.40L117.28-22.40Z M141.88 0L133.88 0L133.88-2.12Q133.12-1.04 131.50-0.30Q129.88 0.44 128 0.44L128 0.44Q120.88 0.44 120.88-7.28L120.88-7.28L120.88-17.60L118.88-17.60L118.88-18.40L126.88-18.40L126.88-6.40Q126.88-3.56 127.72-2.36Q128.56-1.16 130.24-1.16L130.24-1.16Q132.48-1.16 133.88-3.56L133.88-3.56L133.88-17.60L131.88-17.60L131.88-18.40L139.88-18.40L139.88-0.80L141.88-0.80L141.88 0Z M165.68-11.12L165.68-0.80L167.68-0.80L167.68 0L157.68 0L157.68-0.80L159.68-0.80L159.68-12Q159.68-14.84 158.84-16.04Q158-17.24 156.32-17.24L156.32-17.24Q154.04-17.24 152.68-14.84L152.68-14.84L152.68-0.80L154.68-0.80L154.68 0L144.68 0L144.68-0.80L146.68-0.80L146.68-17.60L144.68-17.60L144.68-18.40L152.68-18.40L152.68-16.32Q153.44-17.36 155.06-18.10Q156.68-18.84 158.56-18.84L158.56-18.84Q165.68-18.84 165.68-11.12L165.68-11.12Z M182.48-17.60L177.84-17.60L177.84-7.84Q177.84-4.40 178.12-3.66Q178.40-2.92 178.72-2.40L178.72-2.40Q179.32-1.36 180.82-1.36Q182.32-1.36 182.92-1.76L182.92-1.76L182.92-0.96Q181.00 0.40 178.72 0.40L178.72 0.40Q175.36 0.40 173.60-1.20Q171.84-2.80 171.84-6.92L171.84-6.92L171.84-17.60L168.88-17.60L168.88-18.40L171.84-18.40Q173.76-18.72 175.24-20.26Q176.72-21.80 177.28-24.52L177.28-24.52L177.84-24.52L177.84-18.40L182.48-18.40L182.48-17.60Z M202.60-8L202.60-8L190.52-8Q190.92-0.96 196.00-0.96L196.00-0.96Q197.36-0.96 199.10-1.60Q200.84-2.24 201.64-3.40L201.64-3.40L202.20-3Q201.32-1.52 199.20-0.56Q197.08 0.40 194.98 0.40Q192.88 0.40 191.20-0.02Q189.52-0.44 187.92-1.44Q186.32-2.44 185.42-4.44Q184.52-6.44 184.52-9.28L184.52-9.28Q184.52-14.12 187.20-16.46Q189.88-18.80 193.70-18.80Q197.52-18.80 200.06-16.24Q202.60-13.68 202.60-8ZM190.48-9.24L190.48-8.80L197.00-8.80Q197.00-12.48 196.22-15.24Q195.44-18 193.72-18Q192.00-18 191.24-15.34Q190.48-12.68 190.48-9.24L190.48-9.24Z M215.52-0.80L215.52 0L205.52 0L205.52-0.80L207.52-0.80L207.52-17.60L205.52-17.60L205.52-18.40L213.52-18.40L213.52-13.64Q213.88-15.60 214.82-16.84Q215.76-18.08 216.90-18.48Q218.04-18.88 219.10-18.88Q220.16-18.88 221.14-18.50Q222.12-18.12 222.60-16.98Q223.08-15.84 222.64-14.70Q222.20-13.56 221.10-13.08Q220.00-12.60 219.08-12.96Q218.16-13.32 217.76-13.94Q217.36-14.56 217.20-15.12L217.20-15.12Q216.80-16.60 216.12-16.60L216.12-16.60Q215.36-16.60 214.44-13.98Q213.52-11.36 213.52-8.44L213.52-8.44L213.52-0.80L215.52-0.80Z"/></g>
</svg>
</g><g opacity="1" transform="rotate(0 157.7096 131.4496)">
<svg width="97.4993" height="89.3838" x="157.7096" y="131.4496" version="1.1" preserveAspectRatio="none" viewBox="13.5 20.404998779296875 173.00001525878906 158.60000610351562">
  <g transform="matrix(1 0 0 1 0 0)"><g><path d="M102.698 20.405v12.894h33.416v40.705c4.856 5.33 7.819 12.424 7.819 20.214s-2.963 14.884-7.819 20.214v51.679h-33.416v12.894h46.269v-158.6h-46.269z" data-color="1" class="icon1"></path><path d="M13.5 20.405v158.6h46.269v-12.894H26.353V33.299h33.416V20.405H13.5z" data-color="1" class="icon1"></path><path d="M121.745 60.898v3.356H44.84v-3.356h76.905z" data-color="2" class="icon2"></path><path d="M88.597 74.396v3.347H44.63v-3.347h43.967z" data-color="2" class="icon2"></path><path d="M85.372 87.894v3.347H44.63v-3.347h40.742z" data-color="2" class="icon2"></path><path d="M82.45 101.392v3.347H44.63v-3.347h37.82z" data-color="2" class="icon2"></path><path d="M93.138 114.89v3.347H44.63v-3.347h48.508z" data-color="2" class="icon2"></path><path d="M121.746 128.388v3.347H44.63v-3.347h77.116z" data-color="2" class="icon2"></path><path d="M101.208 141.886v3.417H44.63v-3.417h56.578z" data-color="2" class="icon2"></path><path d="M110.275 141.886v3.347h-3.336v-3.347h3.336z" data-color="2" class="icon2"></path><path d="M115.88 141.886v3.347h-3.336v-3.347h3.336z" data-color="2" class="icon2"></path><path d="M121.484 141.886v3.347h-3.336v-3.347h3.336z" data-color="2" class="icon2"></path><path d="M186.5 158.249l-8.049 8.075-47.488-47.643 8.048-8.075 47.489 47.643z" data-color="2" class="icon2"></path><path d="M114.059 128.19c-18.68 0-33.876-15.24-33.876-33.972s15.196-33.972 33.876-33.972c18.679 0 33.875 15.24 33.875 33.972s-15.197 33.972-33.875 33.972zm0-59.944c-14.268 0-25.876 11.651-25.876 25.972s11.608 25.972 25.876 25.972 25.875-11.651 25.875-25.972-11.608-25.972-25.875-25.972z" data-color="1" class="icon1"></path><path d="M130.854 95.393c-5.893-5.913-12.02-8.783-18.2-8.518-9.622.405-16.382 8.311-16.449 8.39l-3.067-2.567c.317-.38 7.907-9.316 19.307-9.818 7.372-.322 14.514 2.936 21.244 9.688l-2.835 2.825z" data-color="2" class="icon2"></path><path d="M119.737 99.024c0 3.472-2.805 6.287-6.266 6.287-3.46 0-6.266-2.815-6.266-6.287s2.805-6.287 6.266-6.287c3.46 0 6.266 2.815 6.266 6.287z" data-color="3" class="icon3"></path></g></g>
</svg>
</g></svg></svg>